PathFileType	4	(X/Y/Z)	C:\Data\4407\4407cd01.trc
DataRate	CameraRate	NumFrames	NumMarkers	Units	OrigDataRate	OrigDataStartFrame	OrigNumFrames
200.00	200.00	       6	33	mm	200.00	395	       451
Frame#	Time	Offset			RShoulder			RUpperArm			RElbow			RForearm			RWrist			LShoulder			LUpperArm			LElbow			LForearm			LWrist			LPSIS			RPSIS			RASIS			RThigh			RKnee			RShank			RAnkle			RHeel			RLat5			RToe			LASIS			LThigh			LKnee			LShank			LAnkle			LHeel			LLat5			LToe			RMed.Knee			LMed.Knee			RMed.Ankle			LMed.Ankle			
		X1	Y1	Z1	X2	Y2	Z2	X3	Y3	Z3	X4	Y4	Z4	X5	Y5	Z5	X6	Y6	Z6	X7	Y7	Z7	X8	Y8	Z8	X9	Y9	Z9	X10	Y10	Z10	X11	Y11	Z11	X12	Y12	Z12	X13	Y13	Z13	X14	Y14	Z14	X15	Y15	Z15	X16	Y16	Z16	X17	Y17	Z17	X18	Y18	Z18	X19	Y19	Z19	X20	Y20	Z20	X21	Y21	Z21	X22	Y22	Z22	X23	Y23	Z23	X24	Y24	Z24	X25	Y25	Z25	X26	Y26	Z26	X27	Y27	Z27	X28	Y28	Z28	X29	Y29	Z29	X30	Y30	Z30	X31	Y31	Z31	X32	Y32	Z32	X33	Y33	Z33	

395	1.970	329.18527	-306.97873	1395.55835	417.52063	-207.43875	1538.98523	539.63953	-271.22687	1403.82813	705.13092	-263.15662	1406.49670	848.03442	-247.17531	1327.87256	965.77618	-188.52657	1382.88635	130.03311	-215.49626	1541.50000	-7.03698	-283.13925	1388.27527	-138.20219	-286.93930	1397.95544	-279.60483	-276.80890	1328.50598	-421.69864	-206.77666	1347.32971	252.49652	-311.29800	1031.37842	301.91513	-310.93079	1033.44885	397.41269	-96.79879	1019.38428	370.53766	-101.73838	691.82117	452.63644	-201.45450	520.28693	420.61618	-173.48230	444.34103	462.49194	-247.28360	110.89345	417.85052	-303.39975	76.11816	515.97919	-108.05721	62.08972	410.54715	-92.24355	57.23692	143.31937	-103.36889	997.88489	147.48605	-112.23167	663.31183	99.27856	-205.43762	519.23547	132.45772	-178.08311	444.22968	93.11877	-267.00043	111.10310	145.74036	-318.90512	80.94505	41.51933	-122.03339	57.81786	150.34019	-105.20940	49.07826	342.47290	-196.82535	501.31784	202.49788	-192.32307	480.75995	376.53412	-207.70360	121.45502	178.92850	-222.40645	116.62269	
396	1.975	329.15829	-306.89191	1395.54785	417.52725	-207.42590	1538.99597	539.72217	-271.08539	1403.76514	705.16962	-263.11609	1406.50220	848.03912	-247.13998	1327.86499	965.71307	-188.52783	1382.88794	130.03154	-215.46846	1541.52063	-6.99880	-283.09973	1388.28210	-138.10612	-286.96844	1398.09436	-279.57080	-276.73352	1328.51526	-421.70816	-206.75041	1347.35449	252.52155	-311.24438	1031.39050	301.89731	-310.94171	1033.43188	397.41437	-96.72460	1019.35480	370.57108	-101.75768	691.80396	452.62061	-201.41789	520.23169	420.66797	-173.45872	444.30701	462.78571	-247.29149	110.87190	417.85516	-303.42447	76.14524	515.96887	-108.11057	62.04300	410.51929	-92.24988	57.24023	143.35068	-103.31252	997.89758	147.49559	-112.13165	663.31305	99.21429	-205.43320	519.21887	132.44157	-178.09781	444.19656	93.16927	-267.00336	111.10441	145.82758	-318.87689	80.90877	41.45936	-122.01307	57.85690	150.34421	-105.26682	49.17816	342.47543	-196.94821	501.29529	202.46201	-192.24913	480.76843	376.62497	-207.73662	121.41326	178.92569	-222.39574	116.63515	
397	1.980	329.17981	-306.93948	1395.62549	417.52243	-207.43503	1538.97510	539.62640	-271.06418	1403.71899	705.17487	-263.11386	1406.46143	848.04742	-247.13443	1327.84949	965.71509	-188.45549	1382.88916	130.05898	-215.43266	1541.51929	-7.04711	-283.06372	1388.31311	-138.24173	-286.92639	1398.10559	-279.53751	-276.76123	1328.59778	-421.73752	-206.67270	1347.41565	252.43903	-311.22992	1031.37463	301.88022	-310.86804	1033.43396	397.35666	-96.74168	1019.31628	370.56506	-101.72057	691.77032	452.58768	-201.42157	520.23602	420.59656	-173.48903	444.22076	462.80878	-247.21124	110.87209	417.86789	-303.41376	76.14198	515.95435	-108.02614	62.07762	410.54059	-92.21075	57.25301	143.32893	-103.31264	997.89667	147.48938	-112.20913	663.31067	99.27364	-205.40372	519.18188	132.41957	-178.12497	444.19766	93.14347	-267.00974	111.09217	145.75681	-318.92288	80.91964	41.54316	-121.96656	57.83167	150.39484	-105.22314	49.03510	342.48709	-196.93709	501.29398	202.46577	-192.30690	480.77271	376.65936	-207.77368	121.43861	178.96526	-222.35423	116.63948	
398	1.985	329.16620	-306.79324	1395.50891	417.50488	-207.46408	1538.97119	539.66846	-271.00040	1403.65942	705.13751	-263.12885	1406.41907	848.04486	-247.13136	1327.83484	965.70618	-188.36580	1382.87341	130.05917	-215.37935	1541.53845	-7.04979	-283.07727	1388.28625	-138.24939	-286.83151	1398.04004	-279.50546	-276.67267	1328.61084	-421.70343	-206.69536	1347.48364	252.48856	-311.16714	1031.32190	301.90680	-310.89755	1033.47217	397.40231	-96.68864	1019.33472	370.58270	-101.72272	691.80444	452.66388	-201.45377	520.35815	420.59314	-173.49619	444.24731	462.53503	-247.16350	110.88811	417.91092	-303.33597	76.08295	515.95184	-108.10402	62.13016	410.51587	-92.20822	57.23126	143.37619	-103.28539	997.91235	147.49187	-112.26547	663.30029	99.22703	-205.42174	519.25439	132.46248	-178.09799	444.20773	93.17865	-266.96017	111.10179	145.70554	-318.92291	80.98533	41.48615	-121.97829	57.87282	150.39279	-105.17818	49.12531	342.46289	-196.83452	501.31848	202.54288	-192.29573	480.77167	376.55637	-207.74916	121.51225	178.94122	-222.33553	116.66641	
399	1.990	329.16782	-306.82849	1395.54187	417.51883	-207.43404	1538.95630	539.62183	-270.95053	1403.61536	705.15796	-263.12344	1406.38062	848.04150	-247.08223	1327.73572	965.79285	-188.33421	1382.87073	130.08008	-215.34392	1541.54004	-7.04425	-283.03873	1388.33228	-138.19186	-286.80792	1398.06006	-279.56125	-276.67676	1328.59436	-421.69916	-206.67810	1347.50757	252.50786	-311.19034	1031.38501	302.15765	-310.59439	1033.24487	397.37283	-96.70058	1019.30743	370.53806	-101.75623	691.79327	452.62283	-201.46782	520.23859	420.62167	-173.47791	444.23434	462.50336	-247.14107	110.91327	417.82745	-303.41611	76.21356	515.97137	-108.11889	62.05309	410.53305	-92.22681	57.24277	143.32027	-103.30336	997.87390	147.50443	-112.08705	663.30798	99.15077	-205.42442	519.23407	132.43787	-178.10786	444.19919	93.17272	-266.91913	111.09749	145.70195	-318.97141	80.99335	41.49359	-121.93150	57.85767	150.35704	-105.21262	49.12801	342.42062	-196.84589	501.28464	202.52756	-192.28412	480.78082	376.62894	-207.71175	121.39817	178.95070	-222.35246	116.64996	
400	1.995	329.13660	-306.71777	1395.48621	417.52664	-207.44530	1538.95557	539.60529	-270.96655	1403.56152	705.10339	-263.13025	1406.35266	848.04175	-247.01924	1327.70288	965.72662	-188.35120	1382.86951	130.06082	-215.28885	1541.52637	-7.00537	-283.00739	1388.35291	-138.14465	-286.82761	1398.14185	-279.51007	-276.64368	1328.64001	-421.71176	-206.63356	1347.53882	252.46364	-311.21353	1031.43018	302.10355	-310.54538	1033.22937	397.35925	-96.71475	1019.33618	370.54578	-101.71804	691.82410	452.56940	-201.38759	520.25580	420.61743	-173.47653	444.25885	462.79257	-247.26773	110.87193	417.89627	-303.38290	76.14172	515.95300	-108.00227	62.07515	410.50861	-92.24946	57.26447	143.32489	-103.29184	997.89130	147.48819	-112.02890	663.33545	99.24870	-205.32388	519.21759	132.44691	-178.09241	444.19928	93.17193	-266.99084	111.09888	145.75157	-318.92389	80.97626	41.47535	-122.00049	57.87644	150.32674	-105.25915	49.10437	342.47220	-196.78978	501.34720	202.48196	-192.28413	480.76801	376.53238	-207.71779	121.45478	178.92351	-222.42860	116.61529	
